<svg xmlns="http://www.w3.org/2000/svg" version="1.1" xmlns:xlink="http://www.w3.org/1999/xlink" xmlns:svgjs="http://svgjs.dev/svgjs" width="1000" height="1000" viewBox="0 0 1000 1000"><g transform="matrix(1,0,0,1,-0.14221556886212738,-0.14221556886229791)"><svg viewBox="0 0 334 334" data-background-color="#ffffff" preserveAspectRatio="xMidYMid meet" height="1000" width="1000" xmlns="http://www.w3.org/2000/svg" xmlns:xlink="http://www.w3.org/1999/xlink"><g id="tight-bounds" transform="matrix(1,0,0,1,0.04749999999998522,0.04750000000001364)"><svg viewBox="0 0 333.90454557049503 333.90454557049503" height="333.90454557049503" width="333.90454557049503"><g><svg></svg></g><g><svg viewBox="0 0 333.90454557049503 333.90454557049503" height="333.90454557049503" width="333.90454557049503"><g><path d="M0 166.952c0-92.205 74.747-166.952 166.952-166.952 92.205 0 166.952 74.747 166.953 166.952 0 92.205-74.747 166.952-166.953 166.953-92.205 0-166.952-74.747-166.952-166.953zM166.952 316.63c82.665 0 149.677-67.013 149.678-149.678 0-82.665-67.013-149.677-149.678-149.677-82.665 0-149.677 67.013-149.677 149.677 0 82.665 67.013 149.677 149.677 149.678z" data-fill-palette-color="tertiary" fill="#ee3e38" stroke="transparent"></path><ellipse rx="160.27418187383762" ry="160.27418187383762" cx="166.95227278524752" cy="166.95227278524752" fill="#ee3e38" stroke="transparent" stroke-width="0" fill-opacity="1" data-fill-palette-color="tertiary"></ellipse></g><g transform="matrix(1,0,0,1,69.66471798877797,71.17305217166896)"><svg viewBox="0 0 194.5751095929391 191.55844122715712" height="191.55844122715712" width="194.5751095929391"><g><svg viewBox="0 0 194.5751095929391 191.55844122715712" height="191.55844122715712" width="194.5751095929391"><g><svg viewBox="0 0 194.5751095929391 191.55844122715712" height="191.55844122715712" width="194.5751095929391"><g><svg viewBox="0 0 194.5751095929391 191.55844122715712" height="191.55844122715712" width="194.5751095929391"><g id="textblocktransform"><svg viewBox="0 0 194.5751095929391 191.55844122715712" height="191.55844122715712" width="194.5751095929391" id="textblock"><g><svg viewBox="0 0 194.5751095929391 191.55844122715712" height="191.55844122715712" width="194.5751095929391"><g transform="matrix(1,0,0,1,0,0)"><svg width="194.5751095929391" viewBox="-0.7 -26.15 32.25000000000001 31.749999999999996" height="191.55844122715712" data-palette-color="#ffffff"><path d="M21.15-22L21.15-22Q19.15-22.3 16.88-22.3 14.6-22.3 12.45-22L12.45-22Q13.8-19.7 15.65-18.25 17.5-16.8 20.33-15.38 23.15-13.95 24.93-12.75 26.7-11.55 28.85-8.8 31-6.05 31.55-3.05L31.55-3.05Q29.15 0.05 25.2 2.43 21.25 4.8 17.1 5.6L17.1 5.6Q14.3 5.35 10.03 4.03 5.75 2.7 3.6 2.7 1.45 2.7-0.7 4.05L-0.7 4.05Q0.2 1.5 2.25-2.35L2.25-2.35 2.65-2.35Q5.85-2.35 8.68-1.35 11.5-0.35 13.83 0.65 16.15 1.65 17.57 1.65 19 1.65 19.65 1.45L19.65 1.45Q19.65-1.85 17.6-4L17.6-4Q16.5-5.15 15.73-5.78 14.95-6.4 13.35-7.5L13.35-7.5 12.5-8.1Q9.1-10.45 6.9-12.88 4.7-15.3 3.7-18.85L3.7-18.85Q5.3-22.4 6.85-25L6.85-25Q11.6-26.15 16.7-26.15L16.7-26.15 18.9-26.15Q23.2-26.15 28.75-24.95L28.75-24.95Q27.95-21.65 26.8-19L26.8-19Q22.6-18.7 20.3-18.7L20.3-18.7Q20.75-19.85 21.15-22Z" opacity="1" transform="matrix(1,0,0,1,0,0)" fill="#ffffff" class="wordmark-text-0" data-fill-palette-color="quaternary" id="text-0"></path></svg></g></svg></g></svg></g></svg></g><g></g></svg></g></svg></g></svg></g></svg></g><defs></defs></svg><rect width="333.90454557049503" height="333.90454557049503" fill="none" stroke="none" visibility="hidden"></rect></g></svg></g></svg>